# xmcd
#
# Track frame offsets: 
#        150
#        1845
#        31164
#        60373
#        87410
#        116890
#        145501
#        167231
#        195249
#        224055
#        261859
#        292889
#
# Disc length: 4289 seconds
#
# Revision: 0
# Processed by: cddbd v1.5.2PL0 Copyright (c) Steve Scherf et al.
# Submitted via: ExactAudioCopyFreeDBPlugin 1.0
#
DISCID=a210bf0c
DTITLE=Fidel - Avel Li Fel
DYEAR=2012
DGENRE=World
TTITLE0=Intro
TTITLE1=Anbians
TTITLE2=Love Is Crazy
TTITLE3=Yon Denye Fwa
TTITLE4=Let Me Be
TTITLE5=Detay
TTITLE6=Ameliorem
TTITLE7=La Vie
TTITLE8=Just For The Thing
TTITLE9=Lelene Cherie
TTITLE10=Avel Li Fel
TTITLE11=Just For The Thing (Bonus)
EXTD=
EXTT0=
EXTT1=
EXTT2=
EXTT3=
EXTT4=
EXTT5=
EXTT6=
EXTT7=
EXTT8=
EXTT9=
EXTT10=
EXTT11=
PLAYORDER=
